<?xml version="1.0" encoding="UTF-8"?> <svg xmlns="http://www.w3.org/2000/svg" xmlns:xlink="http://www.w3.org/1999/xlink" id="Слой_1" data-name="Слой 1" viewBox="0 0 522 544.5"><defs><style>.cls-1,.cls-2{fill:#0071bc;}.cls-1,.cls-5{stroke:#0071bc;stroke-miterlimit:10;stroke-width:13px;}.cls-3{clip-path:url(#clip-path);}.cls-4{fill:#fff;}.cls-5{fill:none;}</style><clipPath id="clip-path" transform="translate(-664.5 -211.5)"><circle class="cls-1" cx="925.5" cy="472.5" r="254.5"></circle></clipPath></defs><circle class="cls-2" cx="261" cy="261" r="254.5"></circle><g class="cls-3"><path class="cls-4" d="M920,750.5c-81.13,0-123.11-22.45-171.71-48.44-17-9.11-34.66-18.53-55.49-28l-3.93-1.78.79-4.24c9.78-52.16,29.57-94.61,60.51-129.77,38.44-43.7,93.46-76.21,168.2-99.4l1.52-.47,1.54.41c81.8,22,142.44,52.54,180.22,90.71s54.22,85.34,48.75,140.08l-.31,3.15-2.89,1.31c-14.89,6.74-29.06,14.38-44.07,22.47C1054,723.08,1003.1,750.5,920,750.5Z" transform="translate(-664.5 -211.5)"></path><path class="cls-2" d="M920,444.14c163.5,44,235.5,119.07,224.93,224.93C1081.2,697.92,1027,745,920,745s-142.46-38.51-224.93-75.93c16.56-88.36,66.4-175.74,224.93-224.93m-.22-11.45-3,.94c-38.85,12.06-73.21,27.05-102.14,44.57-26.85,16.27-49.92,35.26-68.56,56.45-31.61,35.93-51.82,79.23-61.78,132.39l-1.59,8.48,7.85,3.57c20.68,9.38,38.21,18.75,55.17,27.82C795,733.25,837.49,756,920,756c37.82,0,72.68-5.75,106.57-17.57,29.76-10.38,54.88-23.93,79.17-37,14.92-8,29-15.64,43.73-22.3l5.77-2.61.64-6.32c2.8-28,0-54.38-8.25-78.3-8.35-24.15-22.5-46.42-42.07-66.19-19.36-19.56-44.6-37.23-75-52.53-30.16-15.18-66.39-28.51-107.69-39.62l-3.08-.83Z" transform="translate(-664.5 -211.5)"></path><circle class="cls-4" cx="255.5" cy="192.5" r="112.5"></circle><path class="cls-2" d="M920,297A107,107,0,1,1,813,404,107,107,0,0,1,920,297m0-11a118,118,0,1,0,83.44,34.56A117.22,117.22,0,0,0,920,286Z" transform="translate(-664.5 -211.5)"></path></g><circle class="cls-5" cx="261" cy="261" r="254.5"></circle></svg> 